<?xml version="1.0" standalone="no"?>
<!DOCTYPE svg PUBLIC "-//W3C//DTD SVG 20010904//EN"
 "http://www.w3.org/TR/2001/REC-SVG-20010904/DTD/svg10.dtd">
<svg version="1.0" xmlns="http://www.w3.org/2000/svg"
 width="407.000000pt" height="518.000000pt" viewBox="0 0 407.000000 518.000000"
 preserveAspectRatio="xMidYMid meet">

<g transform="translate(0.000000,518.000000) scale(0.100000,-0.100000)"
fill="#000000" stroke="none">
<path d="M1870 4685 l0 -49 -43 42 c-23 23 -46 42 -50 42 -4 0 -6 -15 -6 -32
1 -20 3 -25 6 -14 4 15 13 10 59 -35 l54 -53 -7 70 c-7 83 -13 96 -13 29z"/>
<path d="M1978 4723 c20 -4 22 -10 22 -69 0 -36 4 -64 10 -64 6 0 10 28 10 64
0 63 1 65 28 69 15 2 0 4 -33 4 -33 0 -50 -2 -37 -4z"/>
<path d="M2244 4644 c-10 -64 1 -103 12 -45 5 26 11 30 43 33 30 2 37 7 39 27
5 30 -20 51 -58 51 -25 0 -27 -4 -36 -66z m71 26 c0 -19 -6 -26 -26 -28 -24
-3 -25 0 -21 28 4 25 9 30 26 28 15 -2 21 -10 21 -28z"/>
<path d="M1615 4670 c-4 -17 -4 -34 -1 -37 3 -4 6 5 6 18 0 24 1 23 20 -6 14
-22 16 -31 7 -37 -9 -6 -8 -8 2 -8 8 0 23 -7 33 -17 34 -31 30 -4 -8 49 -20
29 -41 57 -45 61 -4 5 -10 -5 -14 -23z"/>
<path d="M1453 4657 c-40 -15 -51 -26 -20 -20 21 4 25 -1 37 -52 12 -51 25
-73 35 -63 3 2 -4 32 -15 67 l-19 62 22 9 c33 13 -3 10 -40 -3z"/>
<path d="M2427 4658 c-27 -22 -39 -66 -25 -96 7 -14 20 -28 28 -30 12 -4 13
-2 3 9 -20 20 -16 76 7 99 26 26 46 25 65 -4 18 -27 7 -71 -22 -93 -15 -12
-15 -13 -1 -13 22 0 58 47 58 76 0 27 -43 64 -74 64 -12 0 -30 -6 -39 -12z"/>
<path d="M1783 4615 c0 -22 2 -30 4 -17 2 12 2 30 0 40 -3 9 -5 -1 -4 -23z"/>
<path d="M1596 4588 c-3 -17 -4 -33 -1 -36 3 -3 5 2 5 11 0 9 6 20 14 24 11 6
12 10 1 20 -10 9 -14 5 -19 -19z"/>
<path d="M2612 4569 c-27 -65 -27 -74 0 -93 44 -31 67 -21 94 39 32 74 30 84
-4 15 -29 -58 -58 -74 -82 -45 -10 13 -9 24 9 67 12 29 18 55 13 60 -5 5 -18
-14 -30 -43z"/>
<path d="M1282 4594 c-12 -8 -22 -19 -22 -24 0 -17 32 -40 54 -40 33 0 53 -25
36 -45 -7 -8 -22 -16 -34 -16 -17 -1 -18 -2 -3 -6 22 -6 67 22 67 41 0 19 -25
38 -63 45 -41 9 -47 36 -10 49 15 6 21 11 13 11 -9 1 -26 -6 -38 -15z"/>
<path d="M1180 4500 c11 -21 20 -41 20 -44 0 -3 -24 6 -52 19 -78 37 -82 33
-47 -36 16 -34 32 -59 35 -56 3 2 -5 21 -17 41 -12 20 -19 39 -16 42 2 3 30
-7 62 -21 32 -14 59 -25 61 -25 3 0 -9 27 -26 60 -17 33 -33 60 -35 60 -3 0 4
-18 15 -40z"/>
<path d="M2782 4470 c-23 -42 -29 -60 -19 -60 8 0 26 25 41 55 24 50 29 54 47
44 26 -13 21 -43 -9 -47 -18 -3 -22 -10 -22 -36 0 -18 7 -41 15 -52 13 -17 14
-15 8 29 -5 43 -4 47 15 47 25 0 35 14 27 39 -5 16 -44 41 -63 41 -4 0 -22
-27 -40 -60z"/>
<path d="M980 4433 c0 -13 64 -113 72 -113 13 0 10 9 -24 66 -29 48 -48 67
-48 47z"/>
<path d="M3060 4384 c0 -4 7 -12 17 -19 15 -11 13 -17 -20 -60 -21 -26 -37
-52 -37 -56 0 -20 17 -6 50 41 36 51 44 57 55 40 3 -5 12 -10 18 -10 7 1 -1
12 -18 26 -36 30 -65 47 -65 38z"/>
<path d="M829 4275 c17 -20 31 -37 31 -38 0 -2 -27 1 -60 7 -33 5 -62 7 -66 3
-3 -3 13 -28 37 -56 24 -28 45 -48 48 -45 3 2 -11 20 -29 39 -18 19 -31 37
-28 40 3 3 28 0 57 -6 28 -6 56 -9 62 -7 12 4 -59 96 -75 97 -4 1 6 -15 23
-34z"/>
<path d="M1784 4247 c-97 -47 -161 -136 -184 -258 -10 -54 -5 -122 12 -169 6
-14 16 -54 23 -90 8 -39 13 -53 14 -35 0 17 -8 64 -19 105 -38 146 -16 268 66
360 89 98 185 121 319 76 11 -4 7 1 -10 10 -18 10 -58 19 -100 21 -59 3 -78 0
-121 -20z"/>
<path d="M3172 4243 c-7 -3 -19 -18 -27 -34 -14 -26 -14 -32 0 -57 13 -23 15
-23 10 -4 -12 43 44 100 85 87 45 -14 32 -72 -23 -105 -28 -17 -29 -20 -10
-20 33 0 76 41 76 73 0 52 -56 82 -111 60z"/>
<path d="M688 4140 c44 -47 51 -67 30 -88 -19 -19 -35 -14 -78 24 -22 20 -44
34 -48 30 -9 -10 73 -86 93 -86 21 0 55 36 55 58 0 10 -21 38 -47 62 l-48 45
43 -45z"/>
<path d="M3313 4076 c-26 -24 -45 -47 -41 -52 8 -7 105 74 107 89 2 17 -20 4
-66 -37z"/>
<path d="M2193 3900 c-15 -26 -23 -55 -23 -88 0 -36 -7 -60 -31 -98 -52 -83
-98 -104 -143 -66 -21 17 -21 17 -2 -5 43 -51 122 -9 171 92 20 41 25 61 20
88 -6 28 -2 43 15 67 12 17 20 35 18 40 -2 5 -13 -8 -25 -30z"/>
<path d="M1854 3871 c-17 -10 -70 -69 -119 -130 -74 -93 -91 -109 -97 -94 -7
15 -8 14 -4 -4 2 -12 1 -23 -3 -25 -8 -4 -51 -83 -51 -94 1 -5 8 4 17 20 24
46 241 313 261 322 9 4 53 11 97 14 l80 7 -75 1 c-58 2 -82 -2 -106 -17z"/>
<path d="M916 3659 c-10 -50 -7 -93 9 -139 8 -23 15 -44 15 -46 0 -1 -15 2
-32 7 -41 11 -118 12 -118 1 0 -14 55 -84 91 -118 35 -32 155 -125 177 -138
31 -18 5 6 -72 67 -82 65 -176 160 -176 178 0 5 12 9 28 9 86 0 164 -56 213
-152 39 -77 37 -84 -6 -21 -19 28 -40 55 -47 59 -6 4 -3 -6 8 -22 38 -54 38
-59 1 -26 -64 54 -56 35 10 -26 50 -47 61 -63 56 -81 -4 -15 0 -26 13 -35 21
-16 33 -101 33 -240 l1 -88 -40 80 c-46 92 -149 197 -240 246 l-55 30 34 -43
c19 -23 54 -90 78 -148 56 -138 99 -195 167 -227 l54 -25 7 -87 c12 -147 79
-382 131 -458 11 -16 10 -24 -2 -48 -19 -37 -12 -59 33 -98 63 -56 206 -103
408 -136 154 -24 593 -31 767 -10 318 37 504 101 546 189 12 24 11 32 -5 58
-10 17 -33 40 -51 51 l-33 20 12 -25 c27 -60 -20 -105 -151 -146 -401 -124
-1243 -89 -1422 59 -44 36 -48 63 -15 98 l22 24 -41 -20 -42 -21 -6 22 c-3 12
-9 72 -12 132 -5 100 -3 124 26 255 34 152 51 362 33 408 -9 22 -10 21 -35
-25 -15 -27 -39 -89 -54 -138 -35 -120 -38 -288 -7 -415 12 -47 24 -110 27
-140 l5 -55 -25 54 c-60 129 -75 210 -85 456 -5 127 -13 268 -18 315 -6 70 -5
87 7 96 8 6 12 16 8 22 -4 6 7 30 23 52 67 93 84 228 42 344 -11 33 -26 65
-32 70 -16 17 -49 -30 -48 -68 l1 -31 7 30 c4 17 13 40 19 50 10 18 12 16 31
-27 41 -97 46 -203 11 -293 -12 -31 -60 -99 -65 -93 -2 2 5 28 15 58 11 30 19
69 19 85 -1 26 -2 24 -9 -10 -5 -23 -15 -56 -22 -75 -13 -31 -14 -21 -13 115
1 115 0 129 -4 60 -6 -84 -7 -87 -14 -45 -12 68 -64 165 -119 220 -27 28 -53
50 -57 50 -5 0 -11 -14 -15 -31z m68 -29 c70 -78 126 -221 125 -319 l0 -56
-19 72 c-10 40 -26 85 -34 100 -21 39 -20 28 4 -35 26 -69 25 -98 -2 -47 -11
22 -42 63 -67 91 -60 66 -88 159 -65 218 9 24 18 20 58 -24z m-34 -558 c57
-58 88 -100 118 -161 60 -119 52 -129 -18 -23 -33 50 -65 94 -70 97 -6 3 17
-36 50 -87 33 -51 60 -96 60 -100 0 -16 -19 -7 -63 33 -45 39 -60 64 -143 244
-16 33 -30 63 -32 68 -2 4 2 7 9 7 6 0 47 -35 89 -78z m369 -144 c0 -92 -9
-157 -45 -335 -19 -92 -33 -119 -35 -65 0 23 -2 24 -8 7 -14 -35 -21 91 -10
184 15 133 65 301 90 301 5 0 9 -42 8 -92z"/>
<path d="M1270 2798 c-6 -29 -13 -73 -15 -98 -3 -25 4 -3 15 49 11 52 18 97
16 99 -2 2 -9 -21 -16 -50z"/>
<path d="M1243 2615 c0 -22 2 -30 4 -17 2 12 2 30 0 40 -3 9 -5 -1 -4 -23z"/>
<path d="M2724 3648 c-4 -6 -3 -8 4 -4 6 3 15 -2 21 -11 12 -20 14 -13 5 11
-7 19 -20 21 -30 4z"/>
<path d="M2762 3585 c0 -16 2 -22 5 -12 2 9 2 23 0 30 -3 6 -5 -1 -5 -18z"/>
<path d="M2580 3541 c0 -37 48 -187 56 -178 3 2 -7 34 -21 71 -14 36 -25 83
-25 103 l0 36 32 -25 c48 -37 68 -83 67 -153 -1 -52 -3 -56 -9 -25 -4 20 -8
26 -9 15 -1 -15 -5 -13 -16 13 -23 52 -25 37 -4 -23 14 -39 17 -61 10 -74 -6
-10 -8 -27 -5 -39 4 -13 -9 -50 -35 -100 -66 -125 -66 -125 -66 -19 -1 86 -3
98 -37 170 -21 42 -38 77 -40 77 -2 0 -3 -37 -4 -83 0 -45 -4 -100 -8 -121
l-7 -39 -30 51 c-44 77 -43 63 2 -24 21 -41 39 -83 39 -93 0 -10 12 -35 26
-56 l25 -38 -24 -55 -25 -54 -17 57 c-21 75 -28 67 -7 -10 9 -35 12 -72 8 -88
-5 -23 -12 -27 -42 -27 -79 0 -127 50 -213 217 -33 65 -72 132 -86 148 -20 23
-18 17 8 -25 72 -116 77 -132 79 -242 l2 -103 3 85 4 84 26 -44 c52 -89 104
-130 168 -130 40 0 40 0 20 -90 -8 -36 -14 -99 -13 -140 0 -70 1 -72 8 -29 15
89 72 188 174 304 53 60 112 140 131 176 40 76 41 81 20 73 -8 -4 -12 -10 -10
-15 9 -14 -42 -104 -94 -166 -86 -101 -123 -139 -117 -120 3 11 2 15 -4 12
-40 -25 41 110 124 206 17 19 6 10 -24 -21 -60 -61 -121 -167 -141 -245 -14
-56 -61 -164 -54 -125 2 14 7 47 10 73 4 26 15 73 26 105 28 84 212 450 227
451 6 1 12 5 12 10 0 5 20 19 45 31 78 38 138 126 151 224 6 38 4 46 -9 46
-18 0 -52 -33 -69 -65 -6 -11 5 -2 25 20 19 22 38 37 43 32 12 -11 -14 -107
-42 -155 -14 -23 -44 -56 -66 -72 -39 -29 -69 -39 -67 -22 1 4 1 9 0 12 -1 3
-4 30 -7 60 -4 64 -25 162 -32 155 -3 -2 -20 9 -39 25 -18 17 -38 30 -43 30
-6 0 -10 -18 -10 -39z m-39 -341 c7 -44 8 -95 3 -129 l-8 -56 -7 45 -6 45 -1
-45 c-2 -39 -4 -43 -17 -29 -24 24 -32 97 -21 208 l9 104 18 -36 c10 -19 24
-68 30 -107z m-27 -416 c3 -8 2 -12 -4 -9 -6 3 -10 10 -10 16 0 14 7 11 14 -7z"/>
<path d="M2512 3160 c0 -19 2 -27 5 -17 2 9 2 25 0 35 -3 9 -5 1 -5 -18z"/>
<path d="M2681 3564 c0 -11 3 -14 6 -6 3 7 2 16 -1 19 -3 4 -6 -2 -5 -13z"/>
<path d="M2118 3547 c24 -12 28 -18 76 -117 28 -57 27 -50 -5 34 -21 55 -54
96 -78 96 -11 0 -8 -5 7 -13z"/>
<path d="M2765 3505 c-4 -27 -11 -65 -16 -84 -4 -19 -6 -38 -3 -43 3 -4 1 -8
-4 -8 -14 0 -33 -48 -22 -55 14 -9 24 0 60 48 l32 42 -34 -38 c-37 -41 -55
-49 -36 -14 7 12 11 28 9 36 -1 8 2 10 10 5 8 -4 10 -3 5 4 -4 7 -2 38 5 71 6
33 9 65 6 73 -2 7 -8 -9 -12 -37z"/>
<path d="M1573 3465 c0 -27 2 -38 4 -22 2 15 2 37 0 50 -2 12 -4 0 -4 -28z"/>
<path d="M1172 3440 c0 -19 2 -27 5 -17 2 9 2 25 0 35 -3 9 -5 1 -5 -18z"/>
<path d="M2785 3440 c-9 -16 -13 -30 -11 -30 3 0 12 14 21 30 9 17 13 30 11
30 -3 0 -12 -13 -21 -30z"/>
<path d="M2722 3435 c0 -16 2 -22 5 -12 2 9 2 23 0 30 -3 6 -5 -1 -5 -18z"/>
<path d="M2711 3384 c0 -11 3 -14 6 -6 3 7 2 16 -1 19 -3 4 -6 -2 -5 -13z"/>
<path d="M2202 3341 c-11 -7 -10 -9 3 -14 9 -4 14 -3 10 2 -3 5 1 12 7 14 7 3
9 6 3 6 -5 0 -16 -3 -23 -8z"/>
<path d="M2640 3345 c0 -5 5 -17 10 -25 5 -8 10 -10 10 -5 0 6 -5 17 -10 25
-5 8 -10 11 -10 5z"/>
<path d="M2263 3333 c9 -2 23 -2 30 0 6 3 -1 5 -18 5 -16 0 -22 -2 -12 -5z"/>
<path d="M2311 3328 c2 -2 22 -19 44 -38 l40 -35 -34 38 c-19 20 -39 37 -45
37 -5 0 -7 -1 -5 -2z"/>
<path d="M2230 3299 c-22 -6 -20 -7 13 -8 38 -1 47 3 25 11 -7 3 -24 1 -38 -3z"/>
<path d="M2190 3280 c0 -5 5 -10 11 -10 5 0 7 5 4 10 -3 6 -8 10 -11 10 -2 0
-4 -4 -4 -10z"/>
<path d="M2216 3261 c-11 -16 6 -41 31 -47 37 -10 41 4 5 17 -37 13 -41 26 -9
32 22 4 22 4 0 6 -12 0 -24 -3 -27 -8z"/>
<path d="M2060 3236 c0 -2 8 -10 18 -17 15 -13 16 -12 3 4 -13 16 -21 21 -21
13z"/>
<path d="M1735 3018 c0 -91 -3 -110 -27 -160 -14 -31 -44 -80 -66 -110 -39
-53 -82 -130 -82 -145 0 -4 13 15 28 42 15 28 49 78 74 113 64 86 88 155 87
245 -1 40 -4 82 -7 95 -4 13 -7 -23 -7 -80z"/>
<path d="M2699 3063 c-13 -16 -12 -17 4 -4 16 13 21 21 13 21 -2 0 -10 -8 -17
-17z"/>
<path d="M2619 2933 l-34 -38 38 34 c20 19 37 36 37 38 0 8 -8 0 -41 -34z"/>
<path d="M2569 2873 c-13 -16 -12 -17 4 -4 16 13 21 21 13 21 -2 0 -10 -8 -17
-17z"/>
<path d="M2212 2770 c0 -19 2 -27 5 -17 2 9 2 25 0 35 -3 9 -5 1 -5 -18z"/>
<path d="M1872 2710 c0 -14 2 -19 5 -12 2 6 2 18 0 25 -3 6 -5 1 -5 -13z"/>
<path d="M2221 2704 c0 -11 3 -14 6 -6 3 7 2 16 -1 19 -3 4 -6 -2 -5 -13z"/>
<path d="M1847 2597 c-9 -45 -16 -104 -15 -132 1 -38 2 -41 5 -15 2 19 10 77
19 128 9 51 14 95 12 97 -2 3 -12 -33 -21 -78z"/>
<path d="M2750 2620 c63 -3 122 -9 132 -14 25 -11 40 -59 33 -99 -16 -84 -75
-145 -220 -230 -38 -22 -108 -68 -155 -102 -132 -97 -136 -98 -254 -90 -91 6
-110 4 -190 -19 -48 -14 -100 -27 -115 -27 -23 -2 -23 -2 -4 -6 12 -2 69 8
127 22 95 25 112 26 180 17 113 -15 132 -9 271 94 39 29 110 75 159 104 112
66 158 108 190 173 36 70 34 120 -3 158 l-29 29 -119 -2 -118 -2 115 -6z"/>
<path d="M1541 2375 c-3 -95 48 -204 114 -245 50 -31 51 -24 3 13 -54 41 -95
121 -107 207 -7 52 -9 57 -10 25z"/>
<path d="M1718 2103 c7 -3 16 -2 19 1 4 3 -2 6 -13 5 -11 0 -14 -3 -6 -6z"/>
<path d="M790 1320 l0 -400 35 0 35 0 1 358 c0 228 4 350 10 337 8 -17 169
-674 169 -690 0 -3 15 -5 34 -5 24 0 36 5 40 18 3 9 35 159 71 332 36 173 69
324 73 335 4 11 9 -140 12 -335 l5 -355 3 403 2 402 -40 0 c-22 0 -40 -4 -40
-8 0 -11 -151 -726 -154 -729 -1 -2 -43 164 -92 367 l-89 370 -37 0 -38 0 0
-400z"/>
<path d="M1572 1648 c-30 -30 11 -85 44 -57 25 21 11 69 -21 69 -6 0 -16 -5
-23 -12z"/>
<path d="M2946 1644 c-9 -8 -16 -19 -16 -24 0 -11 29 -40 40 -40 14 0 40 30
40 45 0 8 -9 19 -19 25 -25 13 -27 13 -45 -6z"/>
<path d="M3298 1649 c-24 -13 -23 -46 1 -59 11 -5 22 -10 25 -10 8 0 36 31 36
40 0 10 -29 40 -38 40 -4 0 -15 -5 -24 -11z"/>
<path d="M1560 1225 l0 -305 35 0 35 0 0 305 0 305 -35 0 -35 0 0 -305z"/>
<path d="M1952 1510 c-18 -11 -41 -34 -52 -52 -19 -31 -20 -47 -18 -238 3
-233 6 -241 86 -281 56 -28 167 -24 209 7 39 29 61 64 69 107 l6 37 -41 0 -41
0 0 -46 c0 -37 -5 -51 -29 -75 -42 -41 -107 -41 -153 0 l-33 29 0 109 0 108
145 77 c80 43 146 82 148 88 9 26 -31 101 -66 125 -31 22 -48 25 -117 25 -62
0 -87 -4 -113 -20z m184 -24 c30 -30 34 -40 34 -87 l0 -54 -103 -53 c-56 -29
-105 -52 -109 -52 -12 0 -9 174 3 209 14 39 62 71 108 71 24 0 42 -9 67 -34z"/>
<path d="M2518 1523 c78 -2 142 -6 142 -8 0 -3 -61 -134 -135 -292 -74 -157
-135 -290 -135 -295 0 -4 81 -8 180 -8 113 0 180 4 180 10 0 6 -52 10 -135 10
-74 0 -135 2 -135 5 0 3 54 121 121 263 67 141 127 272 135 290 l14 32 -187
-2 c-180 -2 -182 -3 -45 -5z"/>
<path d="M2930 1225 l0 -305 40 0 40 0 0 305 0 305 -40 0 -40 0 0 -305z"/>
<path d="M3280 1225 l0 -305 40 0 40 0 0 305 0 305 -40 0 -40 0 0 -305z"/>
<path d="M1433 763 c357 -2 937 -2 1290 0 353 1 62 2 -648 2 -710 0 -998 -1
-642 -2z"/>
<path d="M1570 613 c-52 -20 -69 -94 -30 -133 44 -44 120 -7 120 59 0 20 -6
45 -12 54 -15 18 -55 29 -78 20z m50 -23 c36 -36 15 -120 -30 -120 -24 0 -50
37 -50 72 0 27 30 68 50 68 6 0 19 -9 30 -20z"/>
<path d="M2151 609 c-56 -22 -70 -93 -25 -128 26 -21 88 -29 98 -13 2 4 -10 6
-27 4 -40 -4 -65 14 -73 55 -9 44 32 86 73 77 22 -4 25 -3 13 5 -18 13 -27 13
-59 0z"/>
<path d="M1340 535 c0 -73 1 -75 24 -75 67 0 104 41 66 72 -12 10 -29 18 -37
18 -11 0 -8 -6 8 -19 20 -16 22 -23 13 -38 -6 -10 -21 -19 -32 -21 -20 -3 -21
1 -21 62 1 63 2 66 25 66 23 0 28 -9 25 -37 -3 -18 18 -16 25 2 10 25 -16 45
-57 45 l-39 0 0 -75z"/>
<path d="M1740 535 c0 -74 0 -75 25 -75 73 0 117 48 95 104 -11 31 -39 46 -84
46 l-36 0 0 -75z m90 46 c18 -34 12 -78 -12 -95 -46 -33 -58 -22 -58 49 l0 65
30 0 c19 0 33 -7 40 -19z"/>
<path d="M1955 560 c14 -27 25 -61 25 -75 0 -39 17 -30 22 13 3 20 12 54 22
75 9 20 14 37 11 37 -3 0 -14 -19 -24 -42 l-19 -43 -19 42 c-10 24 -24 43 -31
43 -8 0 -4 -16 13 -50z"/>
<path d="M2323 557 c-12 -28 -25 -61 -28 -72 -6 -18 -5 -18 5 -2 17 26 74 23
93 -5 8 -13 17 -21 20 -18 6 6 -53 150 -62 150 -3 0 -16 -24 -28 -53z m47 -34
c0 -7 -11 -13 -25 -13 -28 0 -30 8 -13 45 l12 26 13 -23 c7 -13 12 -29 13 -35z"/>
<path d="M2490 536 c0 -44 4 -76 10 -76 6 0 10 30 10 70 0 68 1 70 25 70 20 0
25 -5 25 -23 0 -14 -8 -28 -20 -33 -18 -9 -18 -11 14 -49 19 -22 38 -37 42
-32 4 4 -5 21 -21 37 l-28 29 24 20 c34 28 16 55 -40 59 l-41 3 0 -75z"/>
<path d="M2680 535 l0 -75 39 0 c22 0 43 5 47 11 5 9 -3 10 -30 5 -36 -7 -36
-7 -36 28 0 30 4 35 28 39 l27 4 -27 2 c-23 1 -28 6 -28 25 0 21 5 25 38 29
34 3 33 4 -10 5 l-48 2 0 -75z"/>
</g>
</svg>
