<?xml version="1.0" standalone="no"?>
<!DOCTYPE svg PUBLIC "-//W3C//DTD SVG 20010904//EN"
 "http://www.w3.org/TR/2001/REC-SVG-20010904/DTD/svg10.dtd">
<svg version="1.0" xmlns="http://www.w3.org/2000/svg"
 width="14360.000000pt" height="9864.000000pt" viewBox="0 0 14360.000000 9864.000000"
 preserveAspectRatio="xMidYMid meet">

<g transform="translate(0.000000,9864.000000) scale(0.100000,-0.100000)"
fill="#000000" stroke="none">
<path d="M70236 72943 c4 -49 8 -90 10 -92 2 -2 88 13 190 34 173 36 190 38
256 27 39 -6 74 -14 78 -19 4 -4 2 -366 -6 -803 -11 -627 -11 -796 -1 -802 6
-4 64 -8 128 -8 l116 0 6 468 c15 1006 19 1141 35 1147 8 3 47 8 86 11 62 5
95 0 251 -39 l180 -44 9 89 c4 49 6 91 4 93 -3 4 -1071 25 -1255 25 l-94 0 7
-87z"/>
<path d="M69119 72986 c-3 -3 19 -276 48 -608 61 -710 58 -655 36 -637 -9 8
-259 272 -556 586 l-539 573 -57 -5 c-146 -15 -140 -12 -135 -48 2 -18 36
-405 75 -862 39 -456 72 -832 74 -834 2 -2 29 0 59 3 l55 7 -5 42 c-12 104
-114 1341 -111 1350 2 6 288 -290 637 -656 480 -505 640 -667 657 -667 13 0
23 4 23 9 0 16 -139 1636 -146 1694 l-6 57 -52 0 c-29 0 -55 -2 -57 -4z"/>
<path d="M73896 72778 c-4 -11 -274 -1644 -279 -1688 -2 -11 26 -20 123 -36
69 -12 125 -21 126 -21 0 1 29 171 63 377 34 206 64 376 66 379 3 2 69 -5 148
-17 198 -30 289 -36 382 -23 222 31 361 129 426 300 27 70 36 209 19 280 -27
114 -132 227 -275 296 -93 45 -145 57 -466 110 -151 25 -286 48 -302 51 -18 4
-28 1 -31 -8z m483 -168 c112 -12 171 -40 236 -113 64 -71 88 -141 89 -257 1
-88 -2 -100 -32 -165 -53 -113 -102 -169 -177 -206 -90 -44 -166 -48 -345 -19
-129 21 -140 24 -139 44 0 12 26 176 57 366 l57 345 30 6 c46 10 121 10 224
-1z"/>
<path d="M66097 72618 c-50 -206 -418 -1871 -414 -1874 2 -3 34 0 70 7 l65 12
46 236 c26 130 49 243 52 251 3 12 93 33 384 90 209 40 382 71 384 69 2 -2 63
-94 136 -204 73 -110 136 -204 140 -208 7 -8 267 36 278 47 3 3 -16 36 -42 73
-1082 1572 -1082 1572 -1099 1501z m283 -748 c126 -193 230 -354 230 -359 0
-5 -73 -22 -162 -40 -90 -17 -241 -46 -335 -64 -95 -19 -173 -30 -173 -26 0
12 170 852 176 868 6 18 -18 52 264 -379z"/>
<path d="M64088 72102 c-413 -120 -638 -191 -638 -199 0 -15 50 -144 60 -156
4 -4 76 31 161 79 151 85 225 114 299 114 l36 0 223 -767 c123 -423 225 -770
227 -772 7 -7 236 63 240 74 2 5 -97 354 -221 775 l-223 765 66 32 c77 37 94
40 300 52 85 5 156 11 158 14 8 7 -31 171 -42 173 -5 2 -296 -81 -646 -184z"/>
<path d="M76330 72226 c-359 -77 -580 -308 -691 -726 -29 -107 -36 -329 -15
-430 17 -80 66 -193 116 -265 72 -104 206 -211 332 -261 126 -52 221 -68 388
-68 134 1 168 5 252 27 118 31 206 72 287 133 218 164 365 470 378 790 7 162
-10 250 -72 380 -96 199 -279 341 -524 406 -99 26 -355 34 -451 14z m408 -124
c324 -128 435 -430 322 -877 -47 -188 -134 -350 -262 -491 -148 -162 -353
-218 -551 -150 -262 89 -378 288 -364 621 15 354 164 655 404 815 74 50 188
93 283 108 64 11 84 8 168 -26z"/>
<path d="M78313 71062 c-133 -334 -228 -588 -239 -636 -12 -57 -15 -108 -12
-187 4 -103 7 -113 46 -193 33 -66 57 -98 112 -149 113 -105 298 -191 479
-222 201 -36 337 -1 468 119 64 58 101 110 153 214 35 71 450 1096 450 1112 0
7 -101 53 -105 48 -1 -2 -102 -253 -224 -558 -122 -305 -237 -579 -254 -609
-141 -238 -358 -293 -635 -161 -59 28 -101 57 -143 99 -68 69 -99 129 -106
210 -11 121 5 170 252 787 l234 586 -32 13 c-92 38 -212 85 -216 85 -3 0 -106
-251 -228 -558z"/>
<path d="M62297 71500 c-352 -63 -552 -206 -612 -436 -20 -78 -19 -129 5 -207
25 -82 92 -173 156 -214 112 -72 209 -101 434 -128 347 -42 480 -100 541 -237
33 -76 34 -203 1 -270 -35 -70 -105 -134 -197 -178 -107 -52 -202 -70 -376
-70 -109 0 -140 -3 -136 -12 3 -7 13 -33 23 -57 l17 -44 106 7 c270 16 526
109 671 243 55 51 79 83 112 150 38 75 42 93 46 172 7 140 -38 261 -126 342
-54 51 -203 122 -297 142 -38 9 -146 27 -240 42 -216 33 -271 47 -371 95 -172
83 -241 242 -165 376 28 49 32 51 105 73 121 36 219 51 389 58 86 3 157 9 157
12 -1 3 -9 40 -19 81 l-18 75 -49 2 c-27 1 -98 -7 -157 -17z"/>
<path d="M60428 70692 l-47 -28 290 -554 c159 -305 288 -557 287 -561 -2 -3
-333 142 -737 322 l-733 328 -89 -45 -89 -44 39 -73 c21 -39 202 -385 401
-767 200 -382 364 -696 365 -698 2 -2 26 8 54 23 l52 26 -110 212 c-61 117
-207 397 -325 622 -118 226 -211 411 -207 413 4 1 384 -164 846 -367 683 -302
842 -368 857 -360 11 6 18 14 16 19 -8 25 -814 1560 -818 1560 -3 0 -26 -13
-52 -28z"/>
<path d="M80435 69863 c-223 -421 -402 -770 -398 -774 12 -12 215 -120 218
-117 2 2 89 164 193 361 105 197 192 360 195 363 2 2 43 -16 90 -41 69 -37 87
-51 91 -73 3 -15 33 -250 66 -522 34 -272 65 -498 68 -502 9 -9 274 -109 278
-105 2 2 -46 241 -106 532 -60 291 -107 531 -105 533 2 2 39 -5 82 -15 115
-27 289 -24 365 6 127 49 234 196 245 333 13 152 -85 324 -251 443 -34 24
-160 96 -281 160 -121 64 -248 132 -282 150 l-62 34 -406 -766z m705 474 c123
-43 191 -80 234 -127 131 -146 108 -390 -51 -529 -55 -49 -118 -71 -204 -71
-89 0 -178 28 -321 103 l-118 61 28 50 c16 28 89 165 162 303 152 289 119 263
270 210z"/>
<path d="M58187 69427 l-97 -63 461 -725 c253 -398 464 -728 469 -732 10 -11
210 115 203 128 -34 60 -926 1455 -931 1455 -4 0 -51 -29 -105 -63z"/>
<path d="M83826 68737 c-25 -41 -46 -76 -46 -78 0 -2 73 -36 162 -74 147 -64
168 -76 230 -135 l68 -65 -484 -644 -484 -645 102 -77 c75 -57 104 -74 111
-65 6 7 221 293 479 636 258 344 472 629 477 634 13 15 135 -61 185 -117 27
-30 85 -97 129 -150 l80 -97 43 47 c23 27 51 60 62 74 l19 25 -531 398 c-291
218 -535 399 -542 402 -8 3 -31 -24 -60 -69z"/>
<path d="M55991 67852 l-43 -38 411 -478 c226 -264 410 -481 408 -482 -2 -2
-350 63 -773 145 -423 82 -778 151 -790 153 -25 4 -167 -110 -160 -128 5 -14
1116 -1308 1125 -1311 3 -1 25 15 48 35 l42 37 -459 535 c-253 294 -458 536
-456 537 2 2 409 -73 905 -167 700 -132 906 -168 921 -160 11 6 20 13 20 16 0
5 -1149 1344 -1153 1344 -1 0 -22 -18 -46 -38z"/>
<path d="M69220 67329 c-1096 -62 -2098 -684 -2757 -1709 -487 -759 -760
-1787 -713 -2691 21 -398 72 -671 220 -1169 187 -631 233 -806 275 -1052 14
-84 31 -224 37 -311 41 -549 -126 -1228 -400 -1630 -154 -227 -240 -397 -310
-617 -141 -442 -147 -996 -16 -1527 123 -503 374 -1039 823 -1760 73 -117 135
-213 138 -213 3 0 -1 10 -9 23 -25 37 -261 454 -330 582 -583 1072 -759 1936
-557 2725 66 257 186 503 372 765 39 55 512 651 1052 1326 539 674 1065 1333
1170 1465 104 131 235 291 291 354 332 378 621 562 984 626 122 22 396 24 710
5 283 -17 594 -11 730 14 284 51 584 202 895 452 196 157 591 557 871 883 177
206 404 496 538 688 32 45 58 82 59 82 1 0 3 -80 3 -178 2 -187 5 -214 80
-602 35 -181 38 -208 38 -385 1 -170 -1 -198 -22 -269 -31 -107 -95 -228 -195
-366 -46 -63 -111 -153 -145 -200 -82 -114 -158 -261 -183 -357 -31 -115 -29
-274 5 -478 15 -88 30 -198 33 -245 14 -232 -85 -531 -290 -875 -92 -154 -344
-533 -435 -653 -262 -348 -552 -589 -778 -646 -80 -21 -242 -21 -319 -1 -302
79 -510 293 -596 615 -20 72 -23 111 -24 247 0 170 -7 174 -25 13 -52 -464
223 -877 653 -980 225 -54 438 -8 671 144 258 168 518 458 820 918 280 425
396 662 452 918 30 137 26 386 -10 560 -36 178 -44 333 -22 420 27 106 94 232
241 450 222 329 268 450 268 705 0 172 -12 246 -102 605 -38 151 -77 323 -85
381 -21 141 -21 277 0 307 8 12 13 22 11 22 -2 0 -28 -33 -58 -72 -436 -588
-1131 -1321 -1554 -1638 -276 -207 -505 -318 -763 -371 -149 -31 -423 -36
-712 -13 -278 21 -650 24 -765 6 -401 -65 -718 -263 -1077 -671 -135 -154
-692 -848 -1567 -1954 -365 -461 -665 -836 -667 -834 -2 1 14 48 36 103 129
329 192 677 192 1059 0 374 -50 655 -237 1329 -82 298 -148 563 -174 704 -194
1036 61 2262 666 3200 142 219 294 404 517 628 208 207 334 312 564 465 446
297 957 474 1498 520 171 14 534 6 694 -16 803 -110 1590 -472 2285 -1050 141
-117 345 -306 468 -435 133 -138 133 -135 2 20 -211 249 -547 567 -807 762
-490 369 -1026 633 -1573 773 -334 86 -737 125 -1085 104z"/>
<path d="M85540 67114 c-341 -66 -695 -403 -781 -744 -30 -119 -24 -289 15
-405 121 -358 531 -623 933 -603 247 12 518 174 703 420 127 168 180 316 180
498 0 274 -128 495 -389 672 -165 113 -304 158 -501 163 -74 2 -146 1 -160 -1z
m526 -218 c75 -24 87 -32 143 -91 144 -154 194 -331 147 -515 -66 -253 -302
-539 -560 -676 -273 -145 -496 -137 -678 26 -210 188 -236 449 -73 735 87 151
236 320 359 404 71 49 203 108 292 131 110 28 257 22 370 -14z"/>
<path d="M54143 66170 c-18 -21 -33 -41 -33 -44 0 -2 186 -178 413 -391 226
-212 438 -416 471 -453 185 -212 179 -421 -18 -639 -99 -109 -253 -182 -359
-170 -32 4 -87 24 -142 51 -86 43 -109 63 -530 456 -242 227 -451 423 -465
435 l-25 24 -92 -99 -93 -98 428 -401 c235 -220 447 -415 472 -434 287 -217
575 -183 838 98 134 144 219 303 229 431 7 82 -12 189 -48 264 -38 81 -97 155
-216 271 -164 161 -783 739 -791 739 -4 0 -22 -18 -39 -40z"/>
<path d="M86965 64949 c-346 -314 -635 -576 -642 -582 -9 -9 6 -32 71 -102
l83 -89 124 112 c68 62 357 323 641 580 284 257 517 471 517 475 1 10 -149
177 -158 177 -3 0 -289 -257 -636 -571z"/>
<path d="M57515 60178 c-13 -36 -87 -315 -105 -398 -95 -426 -111 -773 -54
-1154 51 -346 194 -759 379 -1100 35 -66 63 -121 62 -123 -2 -1 -57 21 -123
51 -305 136 -625 218 -1014 261 -195 21 -540 37 -722 33 l-157 -3 103 -220
c146 -311 228 -450 409 -687 308 -406 687 -759 1407 -1308 642 -490 1471
-1140 1528 -1199 64 -66 71 -85 70 -192 -3 -159 37 -218 228 -345 166 -110
176 -127 220 -382 80 -472 89 -623 129 -2232 8 -333 19 -767 24 -965 6 -227 6
-391 0 -444 -5 -47 -11 -86 -12 -88 -2 -1 -16 37 -31 85 -501 1551 -1453 2782
-2891 3737 -309 205 -696 431 -1004 585 l-104 52 6 -50 c3 -28 15 -68 25 -89
11 -21 91 -114 178 -207 194 -206 239 -262 358 -441 118 -177 190 -303 303
-530 130 -259 206 -437 459 -1073 124 -312 265 -655 312 -762 280 -635 565
-1075 937 -1445 308 -308 627 -505 1024 -635 102 -34 207 -73 233 -87 110 -60
198 -193 217 -328 6 -38 18 -220 26 -402 67 -1420 282 -2550 772 -4038 323
-982 550 -1504 1006 -2316 l21 -36 -52 -62 c-117 -140 -197 -287 -232 -425
-27 -107 -28 -283 -1 -388 76 -296 336 -594 761 -870 1095 -713 3295 -1290
6010 -1577 4976 -527 10661 -39 13457 1155 890 380 1419 806 1563 1259 34 107
39 291 11 410 -97 408 -532 805 -1276 1166 -175 85 -349 161 -312 136 11 -7
67 -43 125 -81 457 -294 661 -619 586 -936 -142 -608 -1268 -1176 -3154 -1594
-1579 -350 -3538 -564 -5730 -626 -451 -13 -1788 -13 -2240 0 -1885 54 -3563
215 -5015 481 -2455 450 -3885 1139 -3885 1869 0 308 248 605 755 903 116 68
113 68 -83 -15 -177 -75 -479 -224 -617 -303 -121 -69 -327 -205 -415 -274
-51 -39 -66 -47 -73 -36 -11 21 -63 225 -86 340 -28 144 -56 353 -86 640 -32
319 -49 458 -85 730 -57 423 -71 576 -77 827 -7 319 1 405 93 922 149 843 243
1313 374 1876 161 688 251 1140 325 1630 147 980 178 1921 89 2770 -13 129
-82 632 -87 636 -1 1 -16 5 -32 8 -29 6 -33 2 -89 -76 -117 -164 -355 -615
-511 -968 -403 -911 -674 -1946 -774 -2960 -37 -370 -45 -540 -45 -950 0 -528
24 -888 94 -1372 59 -410 118 -680 280 -1278 124 -457 177 -733 205 -1065 24
-279 100 -840 181 -1315 l5 -35 -20 20 c-19 19 -336 751 -504 1166 -325 800
-572 1625 -712 2384 -123 667 -167 1237 -210 2740 -26 890 -35 1178 -50 1555
-46 1099 -132 2666 -161 2915 -8 72 -34 249 -57 395 l-43 265 83 45 c165 89
223 163 223 282 0 68 -27 172 -61 240 -11 21 -19 44 -19 52 0 8 46 63 101 123
267 285 453 561 640 948 252 522 386 1022 430 1595 14 192 6 631 -15 825 -33
289 -88 579 -166 865 -95 350 -165 522 -444 1093 -95 194 -111 220 -141 234
-31 15 -36 15 -72 -4 -43 -23 -185 -185 -268 -309 -68 -101 -136 -237 -164
-329 -35 -114 -79 -506 -102 -905 -12 -203 -8 -1348 7 -2211 l7 -366 -33 -6
c-43 -9 -50 -3 -50 46 0 74 -39 396 -71 587 -98 597 -269 1130 -524 1639 -391
783 -893 1413 -1470 1847 -86 65 -291 204 -300 204 -3 0 -8 -6 -10 -12z m166
-258 c981 -609 1937 -2465 2115 -4110 22 -195 24 -618 5 -775 -14 -118 -49
-313 -59 -329 -3 -5 -23 93 -44 218 -204 1226 -557 2179 -1114 3011 -169 254
-190 278 -114 135 472 -890 761 -1625 934 -2370 36 -157 79 -384 91 -475 5
-47 5 -48 -8 -25 -8 14 -70 151 -137 305 -218 495 -342 723 -532 977 -173 231
-362 431 -618 653 -197 171 -268 262 -392 505 -203 397 -311 754 -349 1154
-16 175 -6 530 20 706 21 145 63 348 80 393 6 15 15 38 21 52 5 14 12 25 15
25 3 0 42 -22 86 -50z m2964 -392 c177 -386 248 -560 323 -789 250 -758 301
-1524 151 -2284 -131 -666 -402 -1255 -810 -1760 -145 -179 -178 -211 -243
-229 -30 -9 -56 -16 -59 -16 -2 0 -7 23 -11 51 -7 50 -4 58 78 228 301 624
453 1268 532 2251 18 223 31 980 18 980 -5 0 -31 -217 -57 -482 -73 -744 -128
-1135 -208 -1497 -82 -374 -200 -731 -338 -1027 -52 -113 -120 -244 -121 -233
0 4 27 197 59 430 110 783 112 817 116 2264 2 633 7 1197 10 1255 24 381 135
757 302 1019 38 59 104 141 113 141 3 0 68 -136 145 -302z m-4055 -1948 c901
-82 1604 -493 2134 -1250 253 -361 456 -788 694 -1460 84 -238 98 -278 89
-270 -2 3 -65 111 -139 240 -374 655 -657 1047 -1022 1418 -153 156 -271 265
-251 232 5 -8 211 -297 457 -642 247 -345 451 -633 453 -640 3 -7 -4 -19 -16
-26 -23 -15 -3 -31 -249 199 -318 297 -519 454 -748 583 -72 41 -254 126 -268
126 -24 0 155 -170 506 -479 520 -458 786 -699 871 -787 125 -130 259 -295
290 -357 29 -57 30 -62 14 -73 -32 -24 45 -83 -1120 855 -703 566 -986 797
-1100 896 -349 304 -630 606 -842 903 -125 175 -283 442 -303 512 l-9 30 222
0 c122 0 274 -5 337 -10z m-55 -4011 c356 -137 772 -437 1205 -869 927 -924
1743 -2247 1995 -3234 34 -132 80 -384 72 -392 -2 -2 -59 89 -127 203 -305
516 -778 1246 -1100 1698 -292 409 -687 924 -983 1280 -121 145 -143 168 -92
95 577 -823 952 -1385 1348 -2020 316 -506 775 -1285 764 -1296 -9 -9 -200 66
-342 136 -265 130 -461 276 -700 522 -171 175 -291 325 -440 548 -247 371
-425 731 -775 1570 -362 867 -555 1253 -826 1653 -52 75 -91 137 -86 137 4 0
43 -14 87 -31z m5790 -1900 c13 -195 29 -460 36 -589 15 -294 6 -999 -15
-1270 -70 -867 -202 -1644 -462 -2714 -116 -476 -148 -627 -264 -1261 -106
-576 -128 -681 -140 -668 -17 18 -42 385 -47 678 -8 430 17 823 83 1304 56
413 107 697 289 1606 112 556 225 1151 225 1179 0 20 -25 -14 -57 -77 -261
-516 -639 -2879 -672 -4197 l-6 -275 -33 100 c-180 542 -237 1433 -156 2425
121 1485 509 2980 990 3816 62 109 195 306 201 300 2 -2 15 -163 28 -357z"/>
<path d="M79779 59723 c-229 -235 -358 -411 -474 -648 -142 -290 -212 -575
-235 -960 -6 -93 -11 -170 -13 -171 -1 -1 -36 43 -77 99 -41 56 -129 156 -195
223 -190 192 -380 333 -740 551 l-170 103 -6 -63 c-40 -388 -30 -626 42 -972
68 -333 153 -573 454 -1290 216 -515 455 -1102 477 -1168 25 -81 23 -114 -12
-166 -38 -56 -53 -113 -46 -166 4 -23 29 -88 56 -145 73 -153 73 -155 0 -355
-125 -340 -139 -369 -907 -1800 -251 -468 -368 -673 -379 -663 -2 2 8 58 21
125 66 329 95 638 95 1004 0 301 -10 459 -46 708 -118 827 -441 1641 -978
2466 l-65 100 -15 -37 c-24 -56 -20 -97 28 -293 59 -245 71 -351 69 -650 -1
-296 -16 -458 -103 -1070 -84 -595 -109 -844 -110 -1070 l-1 -100 -78 150
c-43 83 -152 294 -243 470 -267 520 -439 786 -739 1146 -132 158 -464 491
-551 553 -173 121 -340 164 -881 225 -146 17 -295 35 -331 42 -63 10 -66 12
-70 42 -2 18 -12 86 -21 152 -42 304 -140 580 -326 917 -89 161 -103 198 -145
388 -49 222 -84 326 -163 485 -84 169 -168 290 -281 405 -104 105 -187 165
-311 224 -185 90 -324 108 -604 81 -99 -10 -214 -15 -255 -12 -73 5 -74 5 -36
-9 52 -19 167 -32 371 -44 132 -7 190 -15 258 -35 179 -52 303 -130 454 -289
188 -196 327 -464 398 -766 66 -281 83 -322 227 -550 105 -168 170 -288 243
-454 57 -131 175 -469 175 -503 0 -17 -11 -18 -148 -19 -168 -1 -222 -13 -265
-56 l-31 -30 25 -19 c63 -50 226 -143 478 -274 152 -79 294 -154 317 -167 l41
-23 -201 0 c-275 -1 -459 -33 -618 -109 -84 -40 -174 -104 -161 -116 35 -33
339 -139 548 -192 l130 -33 -97 -6 c-241 -16 -358 -107 -271 -210 29 -35 122
-81 238 -120 l70 -23 -48 -7 c-68 -11 -97 -32 -97 -72 0 -23 8 -41 28 -59 65
-61 141 -82 421 -113 317 -36 433 -66 496 -129 l23 -23 31 19 c17 11 31 23 31
27 0 13 -64 68 -99 86 -94 48 -186 67 -441 95 -214 23 -317 43 -370 71 l-35
18 87 1 c90 0 262 -19 406 -46 98 -18 115 -15 110 23 -4 34 -40 49 -253 103
-186 48 -486 156 -527 190 -20 17 -21 20 -8 33 22 22 105 45 200 57 46 5 225
10 397 10 l313 0 0 40 c0 38 -1 40 -33 40 -152 0 -631 84 -832 146 -122 37
-255 87 -255 95 0 22 171 78 320 106 148 27 462 24 654 -5 81 -13 150 -21 152
-19 7 6 -159 127 -247 180 -41 25 -201 110 -355 189 -153 80 -312 165 -352
189 l-74 44 39 7 c66 12 235 8 321 -7 45 -8 203 -28 351 -45 546 -61 706 -105
877 -241 220 -175 584 -587 811 -919 l65 -95 -12 -70 c-18 -102 -56 -218 -104
-315 -98 -199 -202 -325 -426 -520 -14 -12 -4 -7 21 10 69 47 203 169 260 236
123 144 230 341 270 494 12 47 25 88 29 92 10 13 163 -254 315 -551 78 -152
185 -359 238 -461 138 -267 164 -335 182 -477 24 -184 62 -355 115 -508 59
-173 83 -239 91 -245 3 -3 23 -36 44 -75 79 -144 176 -275 302 -407 88 -92
118 -159 118 -264 l0 -81 -192 -389 c-191 -389 -245 -506 -354 -769 -32 -77
-59 -135 -59 -128 -1 34 -65 351 -100 493 -179 724 -458 1365 -865 1980 -177
267 -399 553 -575 740 -51 55 -46 47 30 -48 702 -880 1172 -1926 1355 -3016
18 -111 39 -250 45 -309 l12 -109 -77 -234 c-72 -216 -80 -236 -110 -254 -123
-76 -462 -69 -792 15 -633 163 -1120 583 -1558 1344 -91 160 -287 552 -445
891 -622 1336 -1358 2463 -2295 3516 -146 164 -562 604 -571 604 -7 0 18 -29
186 -221 909 -1034 1669 -2170 2285 -3416 l135 -273 0 -642 c0 -955 29 -1512
111 -2158 174 -1367 601 -2557 1240 -3455 101 -142 305 -402 335 -425 10 -8
-9 19 -42 60 -676 836 -1137 1953 -1349 3263 -55 340 -98 766 -127 1237 -15
248 -16 1630 -2 1694 l9 38 79 -168 c240 -518 474 -918 704 -1204 92 -114 278
-302 384 -388 424 -344 960 -530 1468 -509 74 3 152 11 173 17 22 6 41 9 44 6
3 -2 -20 -100 -51 -218 -176 -670 -311 -1394 -362 -1938 -35 -374 -30 -1031
11 -1395 19 -171 29 -205 59 -205 22 0 24 5 29 78 4 42 11 176 17 297 12 271
25 403 51 523 29 132 105 351 198 564 171 396 232 540 306 723 141 346 260
575 389 750 66 89 430 527 654 788 204 237 304 349 547 612 336 364 508 561
722 827 564 699 987 1405 1260 2103 90 229 86 214 59 226 -83 38 -798 -442
-1248 -839 -906 -798 -1602 -1807 -2022 -2934 -82 -221 -117 -337 -217 -718
-94 -357 -176 -610 -248 -770 -112 -246 -183 -417 -297 -713 -65 -169 -121
-304 -126 -299 -15 15 105 997 163 1336 87 514 272 1217 374 1427 24 48 51
123 60 165 44 197 299 737 752 1589 88 165 236 444 330 620 262 492 488 934
880 1720 338 675 392 795 516 1124 l42 115 68 -3 c199 -7 275 62 302 276 l7
52 136 44 c175 56 328 122 467 199 841 466 1412 1229 1663 2223 65 259 82 369
107 725 27 382 28 380 -50 380 -78 0 -312 -101 -431 -186 -82 -58 -148 -133
-277 -313 -248 -347 -375 -562 -959 -1631 -161 -295 -198 -354 -214 -352 -35
6 -35 18 2 98 302 659 440 1313 420 1999 -15 522 -97 946 -260 1338 -37 88
-133 287 -140 287 -1 0 -63 -62 -137 -137z m220 -268 c77 -192 133 -427 168
-700 22 -176 26 -787 5 -985 -58 -550 -172 -1042 -343 -1475 -66 -168 -198
-427 -286 -560 -71 -107 -212 -289 -219 -282 -2 2 19 62 46 135 171 459 298
937 360 1352 41 279 53 481 46 820 -4 173 -10 342 -14 375 -7 53 -9 42 -15
-95 -39 -797 -115 -1294 -283 -1840 -48 -156 -123 -363 -123 -342 -1 7 11 124
26 260 23 207 27 292 27 522 0 241 -2 291 -22 405 -33 190 -66 316 -137 531
-78 233 -90 313 -81 513 18 358 96 668 240 954 108 213 276 448 421 586 l67
64 38 -69 c22 -38 57 -114 79 -169z m-1834 -846 c404 -242 678 -519 859 -870
81 -157 128 -277 171 -444 120 -464 111 -941 -34 -1690 l-29 -150 -1 240 c-2
486 -39 880 -112 1195 -31 133 -93 337 -97 318 -2 -10 22 -269 53 -577 32
-309 55 -567 51 -576 -16 -43 -35 -8 -90 173 -127 413 -248 677 -395 862 l-20
25 5 -40 c7 -45 55 -193 271 -830 121 -355 156 -471 181 -600 45 -224 42 -303
-10 -257 -10 8 -63 130 -119 271 -379 960 -620 1582 -674 1742 -101 299 -164
569 -196 834 -13 114 -18 430 -6 459 10 24 13 22 192 -85z m3540 -380 c-29
-327 -45 -439 -86 -633 -138 -655 -448 -1227 -918 -1696 -322 -321 -694 -555
-1111 -701 -80 -28 -98 -31 -138 -23 -39 7 -46 12 -44 29 7 39 32 64 134 134
298 203 573 463 837 791 249 310 532 735 696 1045 32 61 53 106 48 100 -6 -5
-99 -136 -208 -290 -523 -739 -769 -1028 -1123 -1324 -102 -85 -329 -250 -345
-251 -5 0 33 53 83 118 192 248 389 511 447 597 100 150 346 565 617 1045 443
782 491 856 681 1045 122 123 258 221 374 271 41 18 77 32 79 30 2 -2 -8 -131
-23 -287z m-4878 -2346 c322 -417 562 -1213 650 -2153 21 -233 24 -850 5
-1045 -32 -321 -93 -619 -169 -824 l-38 -104 -7 44 c-3 24 -7 121 -7 214 -3
554 -69 1427 -157 2055 -31 224 -106 682 -111 677 -2 -2 6 -100 17 -218 79
-853 131 -1855 129 -2534 l0 -200 -55 60 c-77 83 -193 260 -253 385 -169 355
-246 824 -221 1349 12 249 27 403 85 881 68 556 78 681 79 1000 1 157 -3 331
-7 388 -4 56 -6 102 -4 102 3 0 31 -35 64 -77z m3163 -3139 c0 -15 -366 -747
-440 -880 -398 -713 -900 -1368 -1693 -2206 -231 -244 -325 -351 -633 -718
-284 -337 -317 -374 -308 -340 27 97 228 486 369 712 260 415 508 729 1221
1548 324 372 535 622 530 628 -2 2 -19 -4 -38 -14 -310 -157 -1597 -1758
-2062 -2564 -36 -63 -66 -110 -66 -104 0 29 64 265 101 369 435 1240 1951
3070 2933 3541 71 34 86 39 86 28z"/>
<path d="M66910 54417 c147 -295 231 -495 322 -767 154 -457 250 -885 305
-1355 25 -218 25 -849 0 -1055 -94 -761 -283 -1305 -672 -1928 -103 -164 -264
-395 -539 -772 -505 -693 -720 -1056 -901 -1520 -169 -433 -260 -843 -300
-1351 -8 -107 -21 -256 -30 -330 -44 -403 -62 -879 -46 -1219 44 -921 220
-1623 555 -2215 435 -766 1105 -1234 1957 -1366 120 -19 184 -23 389 -22 135
0 265 5 290 10 39 9 27 11 -90 12 -715 6 -1435 305 -1930 801 -580 582 -936
1497 -1050 2698 -35 368 -44 591 -45 1067 0 510 4 560 70 885 98 482 290 1000
520 1405 169 298 301 491 710 1035 407 543 555 757 720 1045 283 494 457 1044
531 1675 22 187 30 647 15 851 -53 716 -248 1428 -571 2084 -88 179 -308 567
-338 597 -4 4 53 -115 128 -265z"/>
<path d="M69177 48563 c-12 -433 -69 -785 -262 -1628 -181 -790 -231 -1091
-256 -1539 -17 -313 6 -615 67 -896 63 -286 213 -635 266 -618 22 8 34 36 20
50 -11 11 -12 10 -7 -3 8 -22 -12 -34 -30 -19 -13 11 -67 163 -98 280 -103
377 -123 882 -56 1410 31 248 73 491 149 860 214 1036 253 1307 254 1770 0
198 -4 300 -18 405 -10 77 -19 141 -20 143 -2 1 -6 -96 -9 -215z"/>
<path d="M79960 47154 c-993 -24 -1632 -126 -2200 -351 -216 -85 -383 -171
-670 -343 -378 -227 -578 -318 -778 -354 -64 -12 -70 -14 -35 -15 23 -1 74 6
113 14 188 39 383 126 735 325 353 200 593 304 911 395 577 166 1326 231 2364
206 442 -11 607 -25 799 -67 609 -136 882 -491 858 -1114 -32 -808 -526 -1598
-1420 -2272 -299 -225 -578 -401 -1222 -770 -925 -532 -1162 -688 -1970 -1298
-669 -505 -1089 -794 -1405 -967 -341 -187 -684 -260 -1095 -234 -189 13 -334
30 -710 85 -370 54 -527 68 -760 69 -436 0 -697 -56 -1582 -341 -448 -145
-655 -198 -953 -243 -202 -31 -523 -31 -690 -1 -473 86 -829 324 -1108 740
-283 421 -419 886 -502 1712 l-19 195 5 -165 c17 -542 110 -1047 254 -1394
211 -506 527 -868 923 -1056 252 -120 493 -170 826 -170 383 0 718 64 1356
260 559 172 775 228 1050 272 121 20 176 23 410 22 297 0 312 -2 855 -84 431
-65 587 -81 820 -81 682 -1 1026 170 2390 1186 829 618 1075 784 1670 1130
135 78 369 214 521 302 735 428 1147 719 1503 1063 664 642 1019 1373 1018
2090 -1 657 -316 1051 -954 1194 -213 48 -331 57 -773 60 -225 2 -466 2 -535
0z"/>
<path d="M76163 46083 c15 -2 37 -2 50 0 12 2 0 4 -28 4 -27 0 -38 -2 -22 -4z"/>
<path d="M74925 45070 c10 -11 20 -20 23 -20 3 0 -3 9 -13 20 -10 11 -20 20
-23 20 -3 0 3 -9 13 -20z"/>
<path d="M68613 42600 c0 -30 2 -43 4 -27 2 15 2 39 0 55 -2 15 -4 2 -4 -28z"/>
<path d="M55840 30955 l0 -4925 460 0 460 0 2 4515 3 4515 1045 -4322 1045
-4323 0 -192 0 -193 471 0 472 0 4 23 c3 12 427 2022 944 4466 l939 4445 3
-4467 2 -4467 95 0 95 0 0 4925 0 4925 -475 0 c-261 0 -475 -3 -475 -6 0 -12
-1931 -9159 -1938 -9182 -5 -15 -363 1451 -1116 4570 -610 2526 -1111 4599
-1114 4606 -3 9 -105 12 -463 12 l-459 0 0 -4925z"/>
<path d="M65665 35096 c-203 -49 -345 -234 -345 -449 0 -63 22 -152 51 -209
30 -58 119 -150 177 -181 181 -99 412 -66 557 78 174 174 178 442 9 624 -114
123 -288 176 -449 137z"/>
<path d="M82605 35096 c-227 -56 -376 -287 -337 -518 46 -266 303 -431 567
-363 248 65 393 306 330 550 -63 242 -316 391 -560 331z"/>
<path d="M86903 35100 c-74 -15 -155 -61 -219 -124 -100 -101 -141 -213 -131
-364 17 -278 293 -469 572 -397 226 59 372 276 337 501 -41 263 -293 436 -559
384z"/>
<path d="M65320 29810 l0 -3780 460 0 460 0 0 3780 0 3780 -460 0 -460 0 0
-3780z"/>
<path d="M70930 33579 c-258 -33 -523 -123 -743 -252 -486 -287 -810 -746
-919 -1302 l-22 -110 -4 -2025 c-3 -2107 -3 -2139 39 -2342 163 -792 841
-1408 1659 -1508 66 -8 267 -10 650 -8 l555 5 123 26 c299 66 559 185 797 365
33 25 104 89 159 141 390 379 585 848 586 1409 l0 132 -460 0 -460 0 0 -322
c0 -361 -9 -456 -61 -623 -175 -564 -706 -955 -1299 -955 -272 0 -538 81 -770
235 -100 66 -293 260 -359 360 -100 152 -167 315 -208 506 -17 78 -18 162 -18
1213 l0 1128 1351 718 c743 394 1357 717 1365 717 8 1 217 111 464 245 l450
244 3 105 c13 427 -149 877 -441 1226 -312 371 -760 611 -1257 672 -100 13
-1083 13 -1180 0z m903 -203 c468 -109 837 -443 987 -894 63 -190 65 -212 65
-720 l0 -463 -1230 -652 c-676 -359 -1288 -683 -1358 -721 l-128 -67 4 1193
c3 1190 3 1193 25 1283 48 197 101 322 198 467 217 326 548 534 951 598 32 5
130 7 218 5 126 -3 183 -9 268 -29z"/>
<path d="M75480 33500 l0 -90 1729 -2 1729 -3 -1729 -3683 c-951 -2026 -1729
-3685 -1729 -3688 0 -2 1026 -4 2280 -4 l2280 0 0 90 0 90 -1729 2 -1729 3
1729 3683 c951 2025 1729 3685 1729 3687 0 3 -1026 5 -2280 5 l-2280 0 0 -90z"/>
<path d="M82260 29810 l0 -3780 460 0 460 0 0 3780 0 3780 -460 0 -460 0 0
-3780z"/>
<path d="M86550 29810 l0 -3780 460 0 460 0 0 3780 0 3780 -460 0 -460 0 0
-3780z"/>
<path d="M55840 24125 l0 -65 15815 0 15815 0 0 65 0 65 -15815 0 -15815 0 0
-65z"/>
<path d="M75052 22263 c-8 -15 -762 -1731 -809 -1841 l-14 -33 78 3 78 3 100
245 101 245 414 2 415 3 104 -250 103 -250 149 0 c88 0 149 4 149 10 0 5 -184
429 -409 942 -339 774 -412 934 -429 936 -12 2 -25 -4 -30 -15z m132 -811 c97
-238 176 -437 176 -442 0 -6 -131 -10 -360 -10 -243 0 -360 3 -360 10 0 6 74
190 164 408 209 503 197 475 200 471 2 -2 83 -199 180 -437z"/>
<path d="M65635 22259 c-207 -28 -396 -111 -545 -240 -215 -185 -326 -516
-292 -872 14 -147 40 -245 92 -352 76 -155 195 -272 355 -350 129 -63 201 -79
375 -79 196 -1 312 25 487 109 318 154 481 417 509 820 8 117 -8 280 -37 386
-76 279 -288 488 -565 559 -93 24 -277 33 -379 19z m250 -144 c176 -58 290
-173 364 -364 45 -117 62 -211 68 -386 8 -234 -24 -391 -120 -585 -131 -268
-402 -385 -683 -296 -185 59 -308 204 -377 446 -58 199 -63 483 -13 655 73
250 209 423 415 528 75 38 77 38 171 34 67 -4 119 -13 175 -32z"/>
<path d="M72935 22264 c-238 -28 -393 -83 -574 -205 -106 -71 -189 -158 -252
-265 -100 -170 -134 -304 -134 -529 0 -163 16 -260 62 -369 104 -250 354 -438
674 -508 88 -19 134 -22 299 -22 216 1 336 16 475 62 l80 27 3 78 3 77 -61
-39 c-224 -145 -632 -149 -878 -9 -73 41 -209 177 -251 250 -74 131 -111 296
-111 493 0 285 75 491 235 650 82 82 168 134 279 171 72 24 89 26 180 21 122
-7 260 -42 408 -102 60 -25 112 -45 117 -45 8 0 36 179 28 186 -2 3 -56 18
-120 34 -160 40 -342 57 -462 44z"/>
<path d="M62600 21310 l0 -922 358 5 c375 5 424 10 567 59 184 63 301 152 362
276 37 73 38 80 38 181 0 102 -1 109 -34 169 -67 123 -219 228 -388 268 l-71
17 74 33 c238 103 343 260 313 470 -23 165 -143 272 -374 336 -75 20 -106 22
-462 26 l-383 3 0 -921z m728 785 c82 -39 149 -102 184 -172 19 -41 23 -63 23
-148 0 -93 -2 -105 -33 -167 -79 -162 -212 -218 -513 -218 l-119 0 0 343 0
344 43 13 c75 22 180 38 262 39 72 1 88 -3 153 -34z m-84 -805 c156 -40 281
-131 338 -248 30 -61 33 -74 33 -162 0 -119 -23 -177 -99 -249 -88 -83 -197
-127 -341 -137 -74 -6 -252 8 -289 22 -14 5 -16 48 -16 400 l0 394 148 0 c115
0 166 -4 226 -20z"/>
<path d="M67520 21309 l0 -922 373 6 c472 7 580 23 771 118 103 51 160 94 244
184 118 126 185 284 201 470 25 294 -58 569 -223 743 -112 118 -284 221 -452
271 -149 44 -229 51 -580 51 l-334 0 0 -921z m777 796 c239 -90 423 -299 495
-560 32 -118 32 -371 0 -500 -37 -147 -91 -245 -186 -341 -68 -68 -98 -89
-177 -127 -140 -67 -206 -81 -389 -82 -85 0 -176 4 -202 8 l-48 8 0 783 0 783
74 18 c107 25 169 32 273 34 77 1 104 -3 160 -24z"/>
<path d="M69852 22222 c1 -5 141 -263 311 -574 l307 -565 0 -347 0 -346 135 0
135 0 0 348 1 347 269 570 270 570 -67 3 c-36 2 -69 -1 -73 -5 -4 -4 -112
-239 -241 -521 -128 -282 -236 -509 -240 -505 -4 5 -120 238 -256 518 l-249
510 -153 3 c-84 1 -151 -1 -149 -6z"/>
<path d="M76760 21310 l0 -920 135 0 135 0 0 440 0 440 108 0 107 0 320 -455
c242 -345 324 -455 340 -455 25 0 299 32 303 35 2 2 -161 202 -362 445 -201
243 -366 445 -366 449 0 4 26 14 58 20 152 34 317 126 381 212 55 75 74 141
75 254 1 92 -2 105 -30 166 -44 92 -116 160 -229 214 -143 70 -188 75 -610 75
l-365 0 0 -920z m730 788 c223 -109 290 -426 127 -604 -91 -100 -202 -134
-440 -134 l-147 0 2 362 3 362 34 8 c78 21 212 37 286 35 64 -2 91 -7 135 -29z"/>
<path d="M79090 21310 l0 -920 549 0 549 0 12 73 c6 39 13 82 16 95 3 14 0 22
-8 22 -7 0 -191 -18 -408 -40 -217 -22 -405 -40 -417 -40 l-23 0 0 405 0 405
305 0 305 0 0 50 0 50 -305 0 -305 0 0 339 0 339 73 17 c141 33 218 31 485
-14 134 -23 247 -39 251 -36 5 2 11 28 15 57 4 29 9 68 12 86 l6 32 -556 0
-556 0 0 -920z"/>
</g>
</svg>
